<?xml version="1.0" encoding="UTF-8" standalone="no"?>
<!-- Created with Inkscape (http://www.inkscape.org/) -->

<svg
   width="43.0634mm"
   height="37.041668mm"
   viewBox="0 0 43.0634 37.041668"
   version="1.1"
   id="svg1"
   xml:space="preserve"
   xmlns:inkscape="http://www.inkscape.org/namespaces/inkscape"
   xmlns:sodipodi="http://sodipodi.sourceforge.net/DTD/sodipodi-0.dtd"
   xmlns="http://www.w3.org/2000/svg"
   xmlns:svg="http://www.w3.org/2000/svg"><sodipodi:namedview
     id="namedview1"
     pagecolor="#ffffff"
     bordercolor="#000000"
     borderopacity="0.25"
     inkscape:showpageshadow="2"
     inkscape:pageopacity="0.0"
     inkscape:pagecheckerboard="0"
     inkscape:deskcolor="#d1d1d1"
     inkscape:document-units="mm"><inkscape:page
       x="0"
       y="0"
       width="43.0634"
       height="37.041668"
       id="page2"
       margin="0"
       bleed="0" /></sodipodi:namedview><defs
     id="defs1" /><g
     inkscape:label="Layer 1"
     inkscape:groupmode="layer"
     id="layer1"
     transform="translate(-85.689011,-128.76072)"><path
       style="fill:#000000"
       d="m 85.689012,147.28156 v -18.52083 h 7.9375 7.937498 v 2.64583 2.64583 h -5.291664 -5.291667 v 13.22917 13.22917 h 5.291667 5.291664 v 2.64583 2.64583 h -7.937498 -7.9375 z m 26.458338,10.45104 v -5.15937 h -6.61459 -6.61458 v -5.29167 -5.29167 h 6.60899 6.60899 l 0.0717,-5.19254 0.0717,-5.19255 8.20208,7.7409 c 4.51115,4.2575 8.23037,7.81454 8.26494,7.90453 0.075,0.19533 -0.44394,0.69973 -9.37597,9.11271 -3.81252,3.59097 -6.99745,6.52904 -7.0776,6.52904 -0.0802,0 -0.14574,-2.32172 -0.14574,-5.15938 z"
       id="path1" /></g></svg>
